<svg xmlns="http://www.w3.org/2000/svg" viewBox="0 0 108 108" width="108" height="108" role="img" aria-label="모두의 채팅">
  <defs>
    <radialGradient id="bg" cx="54" cy="50" r="68" gradientUnits="userSpaceOnUse">
      <stop offset="0" stop-color="#F1E9FF"/><stop offset="1" stop-color="#FFFFFF"/>
    </radialGradient>
    <linearGradient id="bolt" x1="4" y1="42" x2="44" y2="4" gradientUnits="userSpaceOnUse">
      <stop offset="0" stop-color="#8C37F8"/><stop offset="1" stop-color="#6C8AFF"/>
    </linearGradient>
    <clipPath id="mask"><rect width="108" height="108" rx="26"/></clipPath>
  </defs>
  <g clip-path="url(#mask)">
    <rect width="108" height="108" fill="url(#bg)"/>
    <g transform="translate(31.016,34.957) scale(0.95)"><path fill="url(#bolt)" d="M25.946 44.938c-.664.845-2.021.375-2.021-.698V33.937a2.26 2.26 0 0 0-2.262-2.262H10.287c-.92 0-1.456-1.04-.92-1.788l7.48-10.471c1.07-1.497 0-3.578-1.842-3.578H1.237c-.92 0-1.456-1.04-.92-1.788L10.013.474c.214-.297.556-.474.92-.474h28.894c.92 0 1.456 1.04.92 1.788l-7.48 10.471c-1.07 1.498 0 3.579 1.842 3.579h11.377c.943 0 1.473 1.088.89 1.83L25.947 44.94z"/></g>
  </g>
</svg>
